<svg xmlns="http://www.w3.org/2000/svg" viewBox="0 0 64 64" fill="none" width="64" height="64"><path d="M10 30 L32 12 L54 30 L50 30 L50 34 L14 34 L14 30 Z" fill="#7FB069"/><rect x="14" y="30" width="36" height="24" rx="2" fill="#E8F3DC"/><path d="M32 48 C32 48 20 40 20 32 C20 28 23 26 26 26 C28 26 30 27 32 29 C34 27 36 26 38 26 C41 26 44 28 44 32 C44 40 32 48 32 48 Z" fill="#E8956B"/><path d="M27 35 L31 39 L38 31" stroke="white" stroke-width="2.5" stroke-linecap="round" stroke-linejoin="round" fill="none"/></svg>