<svg xmlns="http://www.w3.org/2000/svg" viewBox="0 0 64 64" fill="none" width="64" height="64"><path d="M10 30 L32 12 L54 30 L50 30 L50 34 L14 34 L14 30 Z" fill="#C97B50"/><rect x="14" y="30" width="36" height="24" rx="2" fill="#FBE4D2"/><path d="M26 54 L26 40 Q26 38 28 38 L36 38 Q38 38 38 40 L38 54 Z" fill="#8B6F47"/><rect x="18" y="38" width="6" height="6" rx="1" fill="#A8C5D6"/><rect x="40" y="38" width="6" height="6" rx="1" fill="#A8C5D6"/><path d="M32 22 C32 22 28 19 28 17 C28 15.5 29 15 30 15 C31 15 32 16 32 16 C32 16 33 15 34 15 C35 15 36 15.5 36 17 C36 19 32 22 32 22 Z" fill="#E8956B"/></svg>