<svg xmlns="http://www.w3.org/2000/svg" viewBox="0 0 64 64" fill="none" width="64" height="64"><path d="M6 30 L20 30 Q26 30 28 34 L34 38 Q36 40 34 42 Q32 44 30 42 L24 38" fill="#FFD4B3" stroke="#E8A57A" stroke-width="1"/><path d="M58 30 L44 30 Q38 30 36 34 L30 38 Q28 40 30 42 Q32 44 34 42 L40 38" fill="#FFE4C7" stroke="#E8A57A" stroke-width="1"/><path d="M32 24 C32 24 26 19 26 15 C26 13 27.5 12 29 12 C30.5 12 32 13.5 32 13.5 C32 13.5 33.5 12 35 12 C36.5 12 38 13 38 15 C38 19 32 24 32 24 Z" fill="#E8956B"/></svg>