<svg xmlns="http://www.w3.org/2000/svg" viewBox="0 0 64 64" fill="none" width="64" height="64"><path d="M20 36 Q20 22 28 22 L28 14 Q28 11 31 11 Q34 11 34 14 L34 24 L36 24 L36 12 Q36 9 39 9 Q42 9 42 12 L42 24 L44 24 L44 14 Q44 11 47 11 Q50 11 50 14 L50 26 L52 26 Q55 26 55 29 L55 42 Q55 54 42 54 L32 54 Q22 54 20 44 Z" fill="#FFD4B3"/><circle cx="38" cy="36" r="4" fill="#8B6F47"/><ellipse cx="34" cy="30" rx="1.8" ry="2.2" fill="#8B6F47"/><ellipse cx="38" cy="28" rx="1.8" ry="2.2" fill="#8B6F47"/><ellipse cx="42" cy="30" rx="1.8" ry="2.2" fill="#8B6F47"/><ellipse cx="44.5" cy="34" rx="1.5" ry="2" fill="#8B6F47"/></svg>